<mxfile host="Electron" agent="Mozilla/5.0 (X11; Linux x86_64) AppleWebKit/537.36 (KHTML, like Gecko) draw.io/26.0.9 Chrome/128.0.6613.186 Electron/32.2.5 Safari/537.36" version="26.0.9">
  <diagram name="Página-1" id="swJL8_UnPgZipM8jUTZV">
    <mxGraphModel dx="1536" dy="619" grid="1" gridSize="10" guides="1" tooltips="1" connect="1" arrows="1" fold="1" page="1" pageScale="1" pageWidth="827" pageHeight="1169" math="0" shadow="0">
      <root>
        <mxCell id="0" />
        <mxCell id="1" parent="0" />
        <mxCell id="qX8OSAhcZNE9EDzZe5ZY-3" style="edgeStyle=orthogonalEdgeStyle;rounded=0;orthogonalLoop=1;jettySize=auto;html=1;entryX=0;entryY=0.5;entryDx=0;entryDy=0;" edge="1" parent="1" source="qX8OSAhcZNE9EDzZe5ZY-1" target="qX8OSAhcZNE9EDzZe5ZY-2">
          <mxGeometry relative="1" as="geometry" />
        </mxCell>
        <mxCell id="qX8OSAhcZNE9EDzZe5ZY-1" value="Usuário não logado" style="shape=umlActor;verticalLabelPosition=bottom;verticalAlign=top;html=1;outlineConnect=0;" vertex="1" parent="1">
          <mxGeometry x="50" y="30" width="30" height="60" as="geometry" />
        </mxCell>
        <mxCell id="qX8OSAhcZNE9EDzZe5ZY-9" style="edgeStyle=orthogonalEdgeStyle;rounded=0;orthogonalLoop=1;jettySize=auto;html=1;entryX=0.5;entryY=0;entryDx=0;entryDy=0;" edge="1" parent="1" source="qX8OSAhcZNE9EDzZe5ZY-2" target="qX8OSAhcZNE9EDzZe5ZY-8">
          <mxGeometry relative="1" as="geometry" />
        </mxCell>
        <mxCell id="qX8OSAhcZNE9EDzZe5ZY-2" value="Inserir texto na barra de pesquisa" style="ellipse;whiteSpace=wrap;html=1;" vertex="1" parent="1">
          <mxGeometry x="200" y="80" width="120" height="80" as="geometry" />
        </mxCell>
        <mxCell id="qX8OSAhcZNE9EDzZe5ZY-7" style="edgeStyle=orthogonalEdgeStyle;rounded=0;orthogonalLoop=1;jettySize=auto;html=1;entryX=0;entryY=0.5;entryDx=0;entryDy=0;" edge="1" parent="1" source="qX8OSAhcZNE9EDzZe5ZY-6" target="qX8OSAhcZNE9EDzZe5ZY-2">
          <mxGeometry relative="1" as="geometry" />
        </mxCell>
        <mxCell id="qX8OSAhcZNE9EDzZe5ZY-6" value="Usuário logado" style="shape=umlActor;verticalLabelPosition=bottom;verticalAlign=top;html=1;outlineConnect=0;" vertex="1" parent="1">
          <mxGeometry x="50" y="140" width="30" height="60" as="geometry" />
        </mxCell>
        <mxCell id="qX8OSAhcZNE9EDzZe5ZY-8" value="Receber recomendação enquanto digita" style="ellipse;whiteSpace=wrap;html=1;" vertex="1" parent="1">
          <mxGeometry x="200" y="220" width="120" height="80" as="geometry" />
        </mxCell>
      </root>
    </mxGraphModel>
  </diagram>
</mxfile>
